<svg width="276" height="58" viewBox="0 0 276 58" fill="none" xmlns="http://www.w3.org/2000/svg">
<path d="M0 0.489997H17.577L28.755 41.881L39.933 0.489997H56.862L38.556 58H18.468L0 0.489997ZM61.572 0.489997H77.934V58H61.572V0.489997ZM125.834 58L101.777 26.329V58H87.3591V0.489997H100.562L123.647 31.27V0.489997H138.065V58H125.834ZM167.726 0.489997L180.119 36.049L192.674 0.489997H212.843V58H198.182V23.494L186.032 54.841H173.963L161.894 23.413V58H147.476V0.489997H167.726ZM255.761 47.227H236.888L233.972 58H217.529L235.43 0.489997H257.543L275.687 58H258.677L255.761 47.227ZM240.371 34.186H252.359L246.365 12.802L240.371 34.186Z" fill="#ED974F"/>
</svg>
